<svg width="24" height="24" viewBox="0 0 24 24" fill="none" xmlns="http://www.w3.org/2000/svg">
<mask id="mask0_1400_1079" style="mask-type:alpha" maskUnits="userSpaceOnUse" x="0" y="0" width="24" height="24">
<rect width="24" height="24" transform="matrix(-1 0 0 1 24 0)" fill="#D9D9D9"/>
</mask>
<g mask="url(#mask0_1400_1079)">
<path d="M21 21C21.2833 21 21.5208 20.9042 21.7125 20.7125C21.9042 20.5208 22 20.2833 22 20C22 19.7167 21.9042 19.4792 21.7125 19.2875C21.5208 19.0958 21.2833 19 21 19H3C2.71667 19 2.47917 19.0958 2.2875 19.2875C2.09583 19.4792 2 19.7167 2 20C2 20.2833 2.09583 20.5208 2.2875 20.7125C2.47917 20.9042 2.71667 21 3 21H21ZM19.5 18C19.9167 18 20.2708 17.8542 20.5625 17.5625C20.8542 17.2708 21 16.9167 21 16.5V12.5C21 12.0833 20.8542 11.7292 20.5625 11.4375C20.2708 11.1458 19.9167 11 19.5 11C19.0833 11 18.7292 11.1458 18.4375 11.4375C18.1458 11.7292 18 12.0833 18 12.5V16.5C18 16.9167 18.1458 17.2708 18.4375 17.5625C18.7292 17.8542 19.0833 18 19.5 18ZM14.5 18C14.9167 18 15.2708 17.8542 15.5625 17.5625C15.8542 17.2708 16 16.9167 16 16.5V7.5C16 7.08333 15.8542 6.72917 15.5625 6.4375C15.2708 6.14583 14.9167 6 14.5 6C14.0833 6 13.7292 6.14583 13.4375 6.4375C13.1458 6.72917 13 7.08333 13 7.5V16.5C13 16.9167 13.1458 17.2708 13.4375 17.5625C13.7292 17.8542 14.0833 18 14.5 18ZM9.5 18C9.91667 18 10.2708 17.8542 10.5625 17.5625C10.8542 17.2708 11 16.9167 11 16.5V10.5C11 10.0833 10.8542 9.72917 10.5625 9.4375C10.2708 9.14583 9.91667 9 9.5 9C9.08333 9 8.72917 9.14583 8.4375 9.4375C8.14583 9.72917 8 10.0833 8 10.5V16.5C8 16.9167 8.14583 17.2708 8.4375 17.5625C8.72917 17.8542 9.08333 18 9.5 18ZM4.5 18C4.91667 18 5.27083 17.8542 5.5625 17.5625C5.85417 17.2708 6 16.9167 6 16.5V4.5C6 4.08333 5.85417 3.72917 5.5625 3.4375C5.27083 3.14583 4.91667 3 4.5 3C4.08333 3 3.72917 3.14583 3.4375 3.4375C3.14583 3.72917 3 4.08333 3 4.5V16.5C3 16.9167 3.14583 17.2708 3.4375 17.5625C3.72917 17.8542 4.08333 18 4.5 18Z" fill="#E0E0E0"/>
</g>
</svg>
