<svg width="30" height="30" viewBox="0 0 30 30" fill="none" xmlns="http://www.w3.org/2000/svg">
<mask id="mask0_1400_1223" style="mask-type:alpha" maskUnits="userSpaceOnUse" x="0" y="0" width="30" height="30">
<rect width="30" height="30" fill="#D9D9D9"/>
</mask>
<g mask="url(#mask0_1400_1223)">
<path d="M14.5 20.75C14.8542 20.75 15.151 20.6302 15.3906 20.3906C15.6302 20.151 15.75 19.8542 15.75 19.5C15.75 19.1458 15.6302 18.849 15.3906 18.6094C15.151 18.3698 14.8542 18.25 14.5 18.25C14.1458 18.25 13.849 18.3698 13.6094 18.6094C13.3698 18.849 13.25 19.1458 13.25 19.5C13.25 19.8542 13.3698 20.151 13.6094 20.3906C13.849 20.6302 14.1458 20.75 14.5 20.75ZM14.5 15.75C14.8542 15.75 15.151 15.6302 15.3906 15.3906C15.6302 15.151 15.75 14.8542 15.75 14.5V9.5C15.75 9.14583 15.6302 8.84896 15.3906 8.60938C15.151 8.36979 14.8542 8.25 14.5 8.25C14.1458 8.25 13.849 8.36979 13.6094 8.60938C13.3698 8.84896 13.25 9.14583 13.25 9.5V14.5C13.25 14.8542 13.3698 15.151 13.6094 15.3906C13.849 15.6302 14.1458 15.75 14.5 15.75ZM14.5 27C12.7708 27 11.1458 26.6719 9.625 26.0156C8.10417 25.3594 6.78125 24.4688 5.65625 23.3438C4.53125 22.2188 3.64063 20.8958 2.98438 19.375C2.32812 17.8542 2 16.2292 2 14.5C2 12.7708 2.32812 11.1458 2.98438 9.625C3.64063 8.10417 4.53125 6.78125 5.65625 5.65625C6.78125 4.53125 8.10417 3.64063 9.625 2.98438C11.1458 2.32812 12.7708 2 14.5 2C16.2292 2 17.8542 2.32812 19.375 2.98438C20.8958 3.64063 22.2188 4.53125 23.3438 5.65625C24.4688 6.78125 25.3594 8.10417 26.0156 9.625C26.6719 11.1458 27 12.7708 27 14.5C27 16.2292 26.6719 17.8542 26.0156 19.375C25.3594 20.8958 24.4688 22.2188 23.3438 23.3438C22.2188 24.4688 20.8958 25.3594 19.375 26.0156C17.8542 26.6719 16.2292 27 14.5 27Z" fill="#C7C7C7"/>
</g>
</svg>
