<svg width="90" height="104" viewBox="0 0 90 104" fill="none" xmlns="http://www.w3.org/2000/svg">
<path d="M12.8464 0V77.4066V78.0021H34.8776V49.4212H36.6639L52.1452 78.0021H76.5581L59.2904 47.6349H77.1535V0H12.8464Z" fill="#ED1C24"/>
<rect x="33.0913" y="17.8631" width="21.4357" height="16.6722" fill="#FEFEFE"/>
<rect x="54.527" y="8.33609" width="9.76515" height="9.52697" fill="white"/>
<path d="M1.25866 100.338V89.9451H4.77037C5.58233 89.9451 6.24881 90.0838 6.76982 90.3612C7.29083 90.6353 7.67651 91.0125 7.92686 91.4929C8.17721 91.9733 8.30239 92.5197 8.30239 93.132C8.30239 93.7444 8.17721 94.2874 7.92686 94.761C7.67651 95.2347 7.29252 95.6068 6.77489 95.8775C6.25727 96.1447 5.59586 96.2784 4.79067 96.2784H1.94882V95.1416H4.75008C5.30491 95.1416 5.75149 95.0604 6.08981 94.898C6.4315 94.7357 6.67847 94.5056 6.83072 94.2079C6.98634 93.9068 7.06415 93.5482 7.06415 93.132C7.06415 92.7159 6.98634 92.3522 6.83072 92.041C6.67509 91.7297 6.42643 91.4895 6.08473 91.3204C5.74303 91.1478 5.29138 91.0615 4.72978 91.0615H2.51719V100.338H1.25866ZM6.1507 95.6694L8.70837 100.338H7.24685L4.72978 95.6694H6.1507ZM13.4215 100.501C12.6705 100.501 12.0226 100.335 11.4779 100.003C10.9366 99.6683 10.5188 99.2014 10.2244 98.6026C9.9335 98.0004 9.78802 97.3001 9.78802 96.5017C9.78802 95.7032 9.9335 94.9995 10.2244 94.3906C10.5188 93.7782 10.9281 93.3012 11.4525 92.9595C11.9803 92.6144 12.596 92.4419 13.2997 92.4419C13.7057 92.4419 14.1066 92.5095 14.5024 92.6449C14.8983 92.7802 15.2586 93.0001 15.5834 93.3046C15.9082 93.6057 16.167 94.0049 16.3598 94.5022C16.5526 94.9995 16.6491 95.6119 16.6491 96.3393V96.8467H10.6406V95.8115H15.4311C15.4311 95.3717 15.3432 94.9792 15.1672 94.6342C14.9947 94.2891 14.7477 94.0167 14.4263 93.8171C14.1083 93.6175 13.7328 93.5177 13.2997 93.5177C12.8227 93.5177 12.41 93.6361 12.0615 93.873C11.7164 94.1064 11.4508 94.4109 11.2648 94.7864C11.0787 95.1619 10.9857 95.5645 10.9857 95.9942V96.6844C10.9857 97.273 11.0872 97.772 11.2901 98.1814C11.4965 98.5874 11.7824 98.8969 12.1478 99.1101C12.5132 99.3198 12.9377 99.4247 13.4215 99.4247C13.7362 99.4247 14.0203 99.3807 14.2741 99.2928C14.5312 99.2014 14.7528 99.0661 14.9389 98.8868C15.125 98.7041 15.2687 98.4774 15.3702 98.2068L16.5273 98.5316C16.4055 98.924 16.2008 99.2691 15.9132 99.5668C15.6257 99.8611 15.2704 100.091 14.8475 100.257C14.4246 100.419 13.9493 100.501 13.4215 100.501ZM23.9922 94.2891L22.9164 94.5936C22.8487 94.4143 22.7489 94.24 22.617 94.0709C22.4884 93.8983 22.3125 93.7562 22.0892 93.6446C21.8659 93.5329 21.58 93.4771 21.2315 93.4771C20.7545 93.4771 20.357 93.5871 20.039 93.807C19.7244 94.0235 19.567 94.2992 19.567 94.6342C19.567 94.9319 19.6753 95.167 19.8918 95.3396C20.1083 95.5121 20.4467 95.6559 20.9068 95.7709L22.0638 96.0551C22.7607 96.2242 23.2801 96.4831 23.6218 96.8315C23.9634 97.1766 24.1343 97.6215 24.1343 98.1662C24.1343 98.6128 24.0057 99.012 23.7486 99.3638C23.4949 99.7157 23.1397 99.9931 22.6829 100.196C22.2262 100.399 21.695 100.501 21.0895 100.501C20.2944 100.501 19.6364 100.328 19.1154 99.9829C18.5944 99.6379 18.2645 99.1338 18.1258 98.4707L19.2626 98.1865C19.3708 98.606 19.5755 98.9206 19.8766 99.1304C20.1811 99.3401 20.5786 99.445 21.0692 99.445C21.6274 99.445 22.0706 99.3266 22.3987 99.0898C22.7303 98.8496 22.8961 98.562 22.8961 98.2271C22.8961 97.9564 22.8013 97.7298 22.6119 97.5471C22.4224 97.361 22.1315 97.2223 21.739 97.1309L20.4399 96.8264C19.726 96.6573 19.2017 96.3951 18.8667 96.0399C18.5352 95.6812 18.3694 95.233 18.3694 94.6951C18.3694 94.2552 18.4929 93.8662 18.7399 93.5279C18.9902 93.1896 19.3302 92.924 19.7599 92.7311C20.1929 92.5383 20.6835 92.4419 21.2315 92.4419C22.0029 92.4419 22.6085 92.611 23.0483 92.9493C23.4915 93.2877 23.8061 93.7342 23.9922 94.2891ZM25.9371 103.261V92.5434H27.0941V93.7816H27.2362C27.3242 93.6463 27.446 93.4737 27.6016 93.264C27.7606 93.0508 27.9873 92.8614 28.2816 92.6956C28.5793 92.5265 28.9819 92.4419 29.4894 92.4419C30.1457 92.4419 30.7243 92.606 31.225 92.9341C31.7257 93.2623 32.1164 93.7275 32.3972 94.3297C32.678 94.9319 32.8184 95.6423 32.8184 96.4611C32.8184 97.2866 32.678 98.0021 32.3972 98.6077C32.1164 99.2099 31.7274 99.6768 31.23 100.008C30.7327 100.336 30.1593 100.501 29.5097 100.501C29.009 100.501 28.6081 100.418 28.307 100.252C28.0059 100.083 27.7742 99.8916 27.6118 99.6784C27.4494 99.4619 27.3242 99.2826 27.2362 99.1405H27.1347V103.261H25.9371ZM27.1144 96.4408C27.1144 97.0294 27.2007 97.5488 27.3732 97.9987C27.5458 98.4453 27.7978 98.7954 28.1294 99.0492C28.4609 99.2995 28.8669 99.4247 29.3473 99.4247C29.848 99.4247 30.2658 99.2928 30.6008 99.0289C30.9391 98.7616 31.1928 98.403 31.362 97.953C31.5345 97.4997 31.6208 96.9956 31.6208 96.4408C31.6208 95.8927 31.5362 95.3988 31.3671 94.9589C31.2013 94.5158 30.9492 94.1656 30.6109 93.9085C30.276 93.648 29.8548 93.5177 29.3473 93.5177C28.8601 93.5177 28.4508 93.6412 28.1192 93.8882C27.7877 94.1318 27.5373 94.4735 27.3682 94.9133C27.199 95.3497 27.1144 95.8589 27.1144 96.4408ZM37.9135 100.501C37.1624 100.501 36.5145 100.335 35.9699 100.003C35.4285 99.6683 35.0107 99.2014 34.7164 98.6026C34.4254 98.0004 34.28 97.3001 34.28 96.5017C34.28 95.7032 34.4254 94.9995 34.7164 94.3906C35.0107 93.7782 35.4201 93.3012 35.9445 92.9595C36.4723 92.6144 37.088 92.4419 37.7917 92.4419C38.1977 92.4419 38.5986 92.5095 38.9944 92.6449C39.3902 92.7802 39.7505 93.0001 40.0753 93.3046C40.4001 93.6057 40.6589 94.0049 40.8517 94.5022C41.0446 94.9995 41.141 95.6119 41.141 96.3393V96.8467H35.1325V95.8115H39.9231C39.9231 95.3717 39.8351 94.9792 39.6592 94.6342C39.4866 94.2891 39.2397 94.0167 38.9183 93.8171C38.6003 93.6175 38.2247 93.5177 37.7917 93.5177C37.3147 93.5177 36.9019 93.6361 36.5534 93.873C36.2084 94.1064 35.9428 94.4109 35.7567 94.7864C35.5706 95.1619 35.4776 95.5645 35.4776 95.9942V96.6844C35.4776 97.273 35.5791 97.772 35.7821 98.1814C35.9885 98.5874 36.2743 98.8969 36.6397 99.1101C37.0051 99.3198 37.4297 99.4247 37.9135 99.4247C38.2281 99.4247 38.5123 99.3807 38.766 99.2928C39.0232 99.2014 39.2447 99.0661 39.4308 98.8868C39.6169 98.7041 39.7607 98.4774 39.8622 98.2068L41.0192 98.5316C40.8974 98.924 40.6927 99.2691 40.4052 99.5668C40.1176 99.8611 39.7624 100.091 39.3395 100.257C38.9166 100.419 38.4412 100.501 37.9135 100.501ZM46.1295 100.501C45.3987 100.501 44.7694 100.328 44.2417 99.9829C43.7139 99.6379 43.3079 99.1625 43.0237 98.5569C42.7396 97.9513 42.5975 97.2595 42.5975 96.4814C42.5975 95.6897 42.7429 94.9911 43.0339 94.3855C43.3282 93.7765 43.7376 93.3012 44.262 92.9595C44.7897 92.6144 45.4055 92.4419 46.1092 92.4419C46.6572 92.4419 47.1512 92.5434 47.591 92.7464C48.0308 92.9493 48.3911 93.2335 48.6719 93.5989C48.9527 93.9643 49.127 94.3906 49.1946 94.8777H47.997C47.9056 94.5225 47.7026 94.2079 47.388 93.9338C47.0768 93.6564 46.6572 93.5177 46.1295 93.5177C45.6626 93.5177 45.2532 93.6395 44.9014 93.8831C44.5529 94.1233 44.2806 94.4633 44.0844 94.9031C43.8915 95.3396 43.7951 95.8521 43.7951 96.4408C43.7951 97.043 43.8898 97.5674 44.0793 98.0139C44.2721 98.4605 44.5428 98.8073 44.8912 99.0543C45.2431 99.3012 45.6558 99.4247 46.1295 99.4247C46.4407 99.4247 46.7232 99.3706 46.977 99.2623C47.2307 99.1541 47.4455 98.9984 47.6214 98.7954C47.7974 98.5925 47.9225 98.3489 47.997 98.0647H49.1946C49.127 98.5248 48.9595 98.9392 48.6922 99.308C48.4283 99.6734 48.0782 99.9643 47.6417 100.181C47.2087 100.394 46.7046 100.501 46.1295 100.501ZM50.3567 91.7568V89.9451H58.8924V91.7568H55.7106V100.338H53.5386V91.7568H50.3567ZM60.2981 100.338V89.9451H67.3013V91.7568H62.4955V94.2333H66.941V96.0449H62.4955V98.5265H67.3216V100.338H60.2981ZM78.2183 93.5837H75.9956C75.955 93.2961 75.8721 93.0407 75.7469 92.8174C75.6217 92.5907 75.461 92.3979 75.2648 92.2389C75.0686 92.0799 74.8419 91.9581 74.5848 91.8735C74.3311 91.7889 74.0553 91.7466 73.7576 91.7466C73.2197 91.7466 72.7511 91.8803 72.3519 92.1475C71.9527 92.4114 71.6431 92.7971 71.4232 93.3046C71.2033 93.8087 71.0934 94.421 71.0934 95.1416C71.0934 95.8825 71.2033 96.505 71.4232 97.0091C71.6465 97.5132 71.9578 97.8938 72.357 98.151C72.7562 98.4081 73.218 98.5366 73.7424 98.5366C74.0367 98.5366 74.3091 98.4977 74.5594 98.4199C74.8132 98.3421 75.0381 98.2288 75.2344 98.0799C75.4306 97.9277 75.593 97.7433 75.7215 97.5268C75.8535 97.3102 75.9448 97.0633 75.9956 96.7859L78.2183 96.796C78.1608 97.273 78.017 97.7331 77.7869 98.1763C77.5603 98.6161 77.2541 99.0103 76.8684 99.3587C76.4861 99.7038 76.0294 99.9779 75.4982 100.181C74.9705 100.38 74.3733 100.48 73.7069 100.48C72.7799 100.48 71.951 100.271 71.2202 99.851C70.4929 99.4315 69.9177 98.8242 69.4948 98.0292C69.0753 97.2341 68.8656 96.2716 68.8656 95.1416C68.8656 94.0083 69.0787 93.0441 69.505 92.249C69.9313 91.454 70.5098 90.8484 71.2405 90.4323C71.9713 90.0128 72.7934 89.803 73.7069 89.803C74.3091 89.803 74.8673 89.8876 75.3815 90.0567C75.8991 90.2259 76.3576 90.4729 76.7568 90.7977C77.156 91.1191 77.4808 91.5132 77.7311 91.9801C77.9849 92.447 78.1473 92.9815 78.2183 93.5837ZM79.794 100.338V89.9451H81.9914V94.2333H86.4521V89.9451H88.6443V100.338H86.4521V96.0449H81.9914V100.338H79.794Z" fill="#FF0202"/>
</svg>
