<svg width="30" height="30" viewBox="0 0 30 30" fill="none" xmlns="http://www.w3.org/2000/svg">
<mask id="mask0_1400_1205" style="mask-type:alpha" maskUnits="userSpaceOnUse" x="0" y="0" width="30" height="30">
<rect width="30" height="30" fill="#D9D9D9"/>
</mask>
<g mask="url(#mask0_1400_1205)">
<path d="M24.375 13.6562L22.625 15.375C22.3958 15.6042 22.1094 15.724 21.7656 15.7344C21.4219 15.7448 21.125 15.625 20.875 15.375C20.6458 15.1458 20.5312 14.8542 20.5312 14.5C20.5312 14.1458 20.6458 13.8542 20.875 13.625L22.5938 11.875L20.875 10.1562C20.6458 9.92708 20.5312 9.64062 20.5312 9.29688C20.5312 8.95312 20.6458 8.65625 20.875 8.40625C21.125 8.15625 21.4219 8.03125 21.7656 8.03125C22.1094 8.03125 22.4062 8.15625 22.6562 8.40625L24.375 10.125L26.0938 8.375C26.3229 8.125 26.6094 8 26.9531 8C27.2969 8 27.5938 8.125 27.8438 8.375C28.0938 8.625 28.2188 8.92188 28.2188 9.26562C28.2188 9.60938 28.0938 9.90625 27.8438 10.1562L26.125 11.875L27.875 13.625C28.125 13.875 28.2448 14.1667 28.2344 14.5C28.224 14.8333 28.0938 15.125 27.8438 15.375C27.5938 15.6042 27.3021 15.724 26.9688 15.7344C26.6354 15.7448 26.3438 15.625 26.0938 15.375L24.375 13.6562ZM11.25 15C9.875 15 8.69792 14.5104 7.71875 13.5312C6.73958 12.5521 6.25 11.375 6.25 10C6.25 8.625 6.73958 7.44792 7.71875 6.46875C8.69792 5.48958 9.875 5 11.25 5C12.625 5 13.8021 5.48958 14.7812 6.46875C15.7604 7.44792 16.25 8.625 16.25 10C16.25 11.375 15.7604 12.5521 14.7812 13.5312C13.8021 14.5104 12.625 15 11.25 15ZM1.25 22.5V21.5C1.25 20.7917 1.43229 20.1406 1.79688 19.5469C2.16146 18.9531 2.64583 18.5 3.25 18.1875C4.54167 17.5417 5.85417 17.0573 7.1875 16.7344C8.52083 16.4115 9.875 16.25 11.25 16.25C12.625 16.25 13.9792 16.4115 15.3125 16.7344C16.6458 17.0573 17.9583 17.5417 19.25 18.1875C19.8542 18.5 20.3385 18.9531 20.7031 19.5469C21.0677 20.1406 21.25 20.7917 21.25 21.5V22.5C21.25 23.1875 21.0052 23.776 20.5156 24.2656C20.026 24.7552 19.4375 25 18.75 25H3.75C3.0625 25 2.47396 24.7552 1.98438 24.2656C1.49479 23.776 1.25 23.1875 1.25 22.5Z" fill="#ED1C24"/>
</g>
</svg>
