<svg width="30" height="30" viewBox="0 0 30 30" fill="none" xmlns="http://www.w3.org/2000/svg">
<mask id="mask0_1400_1195" style="mask-type:alpha" maskUnits="userSpaceOnUse" x="0" y="0" width="30" height="30">
<rect width="30" height="30" fill="#D9D9D9"/>
</mask>
<g mask="url(#mask0_1400_1195)">
<path d="M21.9375 11.4688L26.3438 7.03125C26.5938 6.78125 26.8906 6.65625 27.2344 6.65625C27.5781 6.65625 27.875 6.78125 28.125 7.03125C28.375 7.28125 28.5 7.57812 28.5 7.92188C28.5 8.26563 28.375 8.5625 28.125 8.8125L22.8125 14.125C22.5625 14.375 22.2708 14.5 21.9375 14.5C21.6042 14.5 21.3125 14.375 21.0625 14.125L18.4063 11.4688C18.1563 11.2188 18.0313 10.9219 18.0313 10.5781C18.0313 10.2344 18.1563 9.9375 18.4063 9.6875C18.6563 9.4375 18.9479 9.3125 19.2813 9.3125C19.6146 9.3125 19.9063 9.4375 20.1563 9.6875L21.9375 11.4688ZM11.25 15C9.875 15 8.69792 14.5104 7.71875 13.5312C6.73958 12.5521 6.25 11.375 6.25 10C6.25 8.625 6.73958 7.44792 7.71875 6.46875C8.69792 5.48958 9.875 5 11.25 5C12.625 5 13.8021 5.48958 14.7813 6.46875C15.7604 7.44792 16.25 8.625 16.25 10C16.25 11.375 15.7604 12.5521 14.7813 13.5312C13.8021 14.5104 12.625 15 11.25 15ZM1.25 22.5V21.5C1.25 20.7917 1.43229 20.1406 1.79688 19.5469C2.16146 18.9531 2.64583 18.5 3.25 18.1875C4.54167 17.5417 5.85417 17.0573 7.1875 16.7344C8.52083 16.4115 9.875 16.25 11.25 16.25C12.625 16.25 13.9792 16.4115 15.3125 16.7344C16.6458 17.0573 17.9583 17.5417 19.25 18.1875C19.8542 18.5 20.3385 18.9531 20.7031 19.5469C21.0677 20.1406 21.25 20.7917 21.25 21.5V22.5C21.25 23.1875 21.0052 23.776 20.5156 24.2656C20.026 24.7552 19.4375 25 18.75 25H3.75C3.0625 25 2.47396 24.7552 1.98438 24.2656C1.49479 23.776 1.25 23.1875 1.25 22.5Z" fill="#096F00"/>
</g>
</svg>
