<svg width="30" height="30" viewBox="0 0 30 30" fill="none" xmlns="http://www.w3.org/2000/svg">
<mask id="mask0_1400_1214" style="mask-type:alpha" maskUnits="userSpaceOnUse" x="0" y="0" width="30" height="30">
<rect width="30" height="30" fill="#D9D9D9"/>
</mask>
<g mask="url(#mask0_1400_1214)">
<path d="M10 11.25C10.3542 11.25 10.651 11.1302 10.8906 10.8906C11.1302 10.651 11.25 10.3542 11.25 10C11.25 9.64583 11.1302 9.34896 10.8906 9.10938C10.651 8.86979 10.3542 8.75 10 8.75C9.64583 8.75 9.34896 8.86979 9.10938 9.10938C8.86979 9.34896 8.75 9.64583 8.75 10C8.75 10.3542 8.86979 10.651 9.10938 10.8906C9.34896 11.1302 9.64583 11.25 10 11.25ZM10 16.25C10.3542 16.25 10.651 16.1302 10.8906 15.8906C11.1302 15.651 11.25 15.3542 11.25 15C11.25 14.6458 11.1302 14.349 10.8906 14.1094C10.651 13.8698 10.3542 13.75 10 13.75C9.64583 13.75 9.34896 13.8698 9.10938 14.1094C8.86979 14.349 8.75 14.6458 8.75 15C8.75 15.3542 8.86979 15.651 9.10938 15.8906C9.34896 16.1302 9.64583 16.25 10 16.25ZM10 21.25C10.3542 21.25 10.651 21.1302 10.8906 20.8906C11.1302 20.651 11.25 20.3542 11.25 20C11.25 19.6458 11.1302 19.349 10.8906 19.1094C10.651 18.8698 10.3542 18.75 10 18.75C9.64583 18.75 9.34896 18.8698 9.10938 19.1094C8.86979 19.349 8.75 19.6458 8.75 20C8.75 20.3542 8.86979 20.651 9.10938 20.8906C9.34896 21.1302 9.64583 21.25 10 21.25ZM6.25 26.25C5.5625 26.25 4.97396 26.0052 4.48438 25.5156C3.99479 25.026 3.75 24.4375 3.75 23.75V6.25C3.75 5.5625 3.99479 4.97396 4.48438 4.48438C4.97396 3.99479 5.5625 3.75 6.25 3.75H18.9688C19.3021 3.75 19.6198 3.8125 19.9219 3.9375C20.224 4.0625 20.4896 4.23958 20.7188 4.46875L25.5313 9.28125C25.7604 9.51042 25.9375 9.77604 26.0625 10.0781C26.1875 10.3802 26.25 10.6979 26.25 11.0313V23.75C26.25 24.4375 26.0052 25.026 25.5156 25.5156C25.026 26.0052 24.4375 26.25 23.75 26.25H6.25ZM18.75 6.25V10C18.75 10.3542 18.8698 10.651 19.1094 10.8906C19.349 11.1302 19.6458 11.25 20 11.25H23.75L18.75 6.25Z" fill="#00756E"/>
</g>
</svg>
