<svg width="30" height="30" viewBox="0 0 30 30" fill="none" xmlns="http://www.w3.org/2000/svg">
<mask id="mask0_1400_1186" style="mask-type:alpha" maskUnits="userSpaceOnUse" x="0" y="0" width="30" height="30">
<rect width="30" height="30" fill="#D9D9D9"/>
</mask>
<g mask="url(#mask0_1400_1186)">
<path d="M15 20C16.5625 20 17.8906 19.4531 18.9844 18.3594C20.0781 17.2656 20.625 15.9375 20.625 14.375C20.625 12.8125 20.0781 11.4844 18.9844 10.3906C17.8906 9.29688 16.5625 8.75 15 8.75C13.4375 8.75 12.1094 9.29688 11.0156 10.3906C9.92188 11.4844 9.375 12.8125 9.375 14.375C9.375 15.9375 9.92188 17.2656 11.0156 18.3594C12.1094 19.4531 13.4375 20 15 20ZM15 17.75C14.0625 17.75 13.2656 17.4219 12.6094 16.7656C11.9531 16.1094 11.625 15.3125 11.625 14.375C11.625 13.4375 11.9531 12.6406 12.6094 11.9844C13.2656 11.3281 14.0625 11 15 11C15.9375 11 16.7344 11.3281 17.3906 11.9844C18.0469 12.6406 18.375 13.4375 18.375 14.375C18.375 15.3125 18.0469 16.1094 17.3906 16.7656C16.7344 17.4219 15.9375 17.75 15 17.75ZM15 23.75C12.2083 23.75 9.66146 23 7.35938 21.5C5.05729 20 3.23958 18.0208 1.90625 15.5625C1.80208 15.375 1.72396 15.1823 1.67188 14.9844C1.61979 14.7865 1.59375 14.5833 1.59375 14.375C1.59375 14.1667 1.61979 13.9635 1.67188 13.7656C1.72396 13.5677 1.80208 13.375 1.90625 13.1875C3.23958 10.7292 5.05729 8.75 7.35938 7.25C9.66146 5.75 12.2083 5 15 5C17.7917 5 20.3385 5.75 22.6406 7.25C24.9427 8.75 26.7604 10.7292 28.0938 13.1875C28.1979 13.375 28.276 13.5677 28.3281 13.7656C28.3802 13.9635 28.4062 14.1667 28.4062 14.375C28.4062 14.5833 28.3802 14.7865 28.3281 14.9844C28.276 15.1823 28.1979 15.375 28.0938 15.5625C26.7604 18.0208 24.9427 20 22.6406 21.5C20.3385 23 17.7917 23.75 15 23.75Z" fill="#0A2CA6"/>
</g>
</svg>
