<svg width="60" height="60" viewBox="0 0 60 60" fill="none" xmlns="http://www.w3.org/2000/svg">
<path d="M18.125 0.521484L23.3422 5.478C25.2986 7.30409 26.342 9.78237 26.342 12.5215C26.342 15.1302 27.3855 17.6085 29.2115 19.4346L29.8636 20.0867L35.8634 0.651908" fill="#F14950"/>
<path d="M0.394531 17.869L7.56813 17.6081C10.1767 17.4777 12.7853 18.5212 14.6113 20.3473C16.4373 22.1734 18.9154 23.0864 21.524 23.0864H22.437L12.7853 5.2168" fill="#F14950"/>
<path d="M0.391291 42.6517L5.21716 37.4343C7.04317 35.4778 9.52132 34.3039 12.1299 34.3039C14.7385 34.3039 17.0862 33.1299 18.9122 31.3039L19.5644 30.6517L0 25.043" fill="#F14950"/>
<path d="M18.1312 59.8693L17.7399 52.6953C17.6095 50.0866 18.5225 47.4779 20.3485 45.5214C22.0441 43.6953 23.0875 41.0866 22.9571 38.6084V37.6953L5.21875 47.7388" fill="#F14950"/>
<path d="M42.9087 59.3482L37.5611 54.6525C35.6047 52.9569 34.4308 50.4786 34.3004 47.7395C34.17 45.1308 32.9961 42.783 31.1701 40.9569L30.5179 40.3047L25.3008 60.0004" fill="#F14950"/>
<path d="M59.8659 41.2166L52.6923 41.7384C50.0837 41.9992 47.4751 41.0862 45.5187 39.2601C43.5622 37.5644 41.0841 36.6514 38.4755 36.7818H37.5625L47.9968 54.2601" fill="#F14950"/>
<path d="M58.6967 16.5664L54.1317 22.0447C52.4361 24.0012 49.958 25.3056 47.3494 25.436C44.7408 25.5664 42.3931 26.7403 40.6975 28.6969L40.1758 29.349L60.001 34.0447" fill="#F14950"/>
<path d="M40.3034 0L40.9555 7.17393C41.2164 9.78263 40.4338 12.3913 38.6078 14.4783C36.9122 16.4348 36.1296 18.9131 36.2601 21.5218L36.3905 22.4348L53.6071 11.6087" fill="#F14950"/>
</svg>
