<svg width="40" height="40" viewBox="0 0 40 40" fill="none" xmlns="http://www.w3.org/2000/svg">
<g clip-path="url(#clip0_2242_4992)">
<path d="M22.5002 25V22.5H23.7502V13.75H22.5002V11.25H27.5002V13.75H26.2502V22.5H27.5002V25H22.5002ZM18.1252 25H20.6252L16.2502 11.25H12.5002L8.12891 25H10.6289L11.3802 22.5H17.3527L18.1252 25ZM12.1327 20L14.1677 13.2362L14.4877 13.2325L16.5802 20H12.1327ZM32.7714 26.25L30.5377 30.7763L25.5427 31.5013L29.1577 35.0262L28.3039 40L32.7714 37.6513L37.2389 40L36.3852 35.025L40.0002 31.5025L35.0052 30.7763L32.7714 26.25Z" fill="#714245"/>
<path d="M21.25 37.5H0V0H37.5V21.25H35V2.5H2.5V35H21.25V37.5Z" fill="#714245"/>
</g>
<defs>
<clipPath id="clip0_2242_4992">
<rect width="40" height="40" fill="white"/>
</clipPath>
</defs>
</svg>
