<svg width="594" height="616" viewBox="0 0 594 616" fill="none" xmlns="http://www.w3.org/2000/svg">
<path d="M472.412 484.795C465.742 524.191 462.407 543.889 448.572 555.578C434.737 567.268 414.758 567.268 374.802 567.268H201.96C155.291 567.268 131.956 567.268 117.458 552.769C102.96 538.271 102.96 514.937 102.96 468.268V155.727C102.96 101.372 102.96 74.1943 120.505 59.3637C138.05 44.5332 164.848 49.0587 218.445 58.1096L437.93 95.1742C483.965 102.948 506.983 106.835 518.865 123.553C530.747 140.271 526.849 163.287 519.055 209.319L472.412 484.795Z" fill="#EA696E"/>
<path d="M43.4259 238.631C50.5154 199.797 54.0601 180.38 67.8315 168.895C81.6029 157.41 101.341 157.41 140.816 157.41H227.7C274.369 157.41 297.704 157.41 312.202 171.908C326.7 186.407 326.7 209.741 326.7 256.41V411.958C326.7 465.724 326.7 492.608 309.38 507.426C292.06 522.245 265.5 518.085 212.381 509.765L100.305 492.212C53.1243 484.822 29.5339 481.127 17.4513 464.111C5.36872 447.094 9.65702 423.604 18.2336 376.625L43.4259 238.631Z" fill="#FFB1B1"/>
<g clip-path="url(#clip0_1969_10397)">
<path d="M92.5809 287.046C92.7216 286.999 92.7551 286.815 92.6403 286.721L87.9292 282.86C87.8178 282.769 87.6493 282.831 87.6235 282.973L86.5638 288.782C86.5379 288.924 86.6737 289.041 86.8102 288.995L92.5809 287.046Z" stroke="#EA696E" stroke-width="0.70875" stroke-linecap="round" stroke-linejoin="round"/>
</g>
<g clip-path="url(#clip1_1969_10397)">
<path d="M95.2938 272.171C95.4345 272.124 95.468 271.94 95.3531 271.846L90.6421 267.985C90.5307 267.894 90.3622 267.956 90.3364 268.098L89.2767 273.907C89.2508 274.049 89.3866 274.166 89.5231 274.12L95.2938 272.171Z" stroke="#EA696E" stroke-width="0.70875" stroke-linecap="round" stroke-linejoin="round"/>
</g>
<g clip-path="url(#clip2_1969_10397)">
<path d="M98.0067 257.298C98.1474 257.251 98.1809 257.067 98.066 256.973L93.355 253.112C93.2436 253.021 93.0751 253.083 93.0492 253.225L91.9896 259.034C91.9637 259.176 92.0995 259.293 92.236 259.247L98.0067 257.298Z" stroke="#EA696E" stroke-width="0.70875" stroke-linecap="round" stroke-linejoin="round"/>
</g>
<g clip-path="url(#clip3_1969_10397)">
<path d="M100.72 242.423C100.86 242.376 100.894 242.192 100.779 242.098L96.0679 238.237C95.9565 238.146 95.788 238.208 95.7621 238.35L94.7024 244.159C94.6766 244.301 94.8124 244.418 94.9489 244.372L100.72 242.423Z" stroke="#EA696E" stroke-width="0.70875" stroke-linecap="round" stroke-linejoin="round"/>
</g>
<g clip-path="url(#clip4_1969_10397)">
<path d="M103.434 227.548C103.575 227.501 103.609 227.317 103.494 227.223L98.7827 223.362C98.6713 223.271 98.5028 223.333 98.477 223.475L97.4173 229.284C97.3914 229.426 97.5272 229.543 97.6637 229.497L103.434 227.548Z" stroke="#EA696E" stroke-width="0.70875" stroke-linecap="round" stroke-linejoin="round"/>
</g>
<g clip-path="url(#clip5_1969_10397)">
<path d="M106.147 212.673C106.288 212.626 106.321 212.442 106.207 212.348L101.496 208.487C101.384 208.396 101.216 208.458 101.19 208.6L100.13 214.409C100.104 214.551 100.24 214.668 100.377 214.622L106.147 212.673Z" stroke="#EA696E" stroke-width="0.70875" stroke-linecap="round" stroke-linejoin="round"/>
</g>
<g clip-path="url(#clip6_1969_10397)">
<path d="M77.7059 284.333C77.8466 284.286 77.8801 284.102 77.7653 284.008L73.0542 280.147C72.9428 280.056 72.7743 280.118 72.7485 280.26L71.6888 286.069C71.6629 286.211 71.7987 286.328 71.9352 286.282L77.7059 284.333Z" stroke="#EA696E" stroke-width="0.70875" stroke-linecap="round" stroke-linejoin="round"/>
</g>
<g clip-path="url(#clip7_1969_10397)">
<path d="M80.4188 269.458C80.5595 269.411 80.593 269.227 80.4781 269.133L75.7671 265.272C75.6557 265.181 75.4872 265.243 75.4614 265.385L74.4017 271.194C74.3758 271.336 74.5116 271.453 74.6481 271.407L80.4188 269.458Z" stroke="#EA696E" stroke-width="0.70875" stroke-linecap="round" stroke-linejoin="round"/>
</g>
<g clip-path="url(#clip8_1969_10397)">
<path d="M83.1317 254.583C83.2724 254.536 83.3059 254.352 83.191 254.258L78.48 250.397C78.3686 250.306 78.2001 250.368 78.1742 250.51L77.1146 256.319C77.0887 256.461 77.2245 256.578 77.361 256.532L83.1317 254.583Z" stroke="#EA696E" stroke-width="0.70875" stroke-linecap="round" stroke-linejoin="round"/>
</g>
<g clip-path="url(#clip9_1969_10397)">
<path d="M85.8466 239.71C85.9872 239.663 86.0207 239.479 85.9059 239.385L81.1948 235.524C81.0834 235.433 80.9149 235.495 80.8891 235.637L79.8294 241.446C79.8036 241.588 79.9394 241.705 80.0758 241.659L85.8466 239.71Z" stroke="#EA696E" stroke-width="0.70875" stroke-linecap="round" stroke-linejoin="round"/>
</g>
<g clip-path="url(#clip10_1969_10397)">
<path d="M88.5594 224.835C88.7001 224.788 88.7336 224.604 88.6188 224.51L83.9077 220.649C83.7963 220.558 83.6278 220.62 83.602 220.762L82.5423 226.571C82.5164 226.713 82.6522 226.83 82.7887 226.784L88.5594 224.835Z" stroke="#EA696E" stroke-width="0.70875" stroke-linecap="round" stroke-linejoin="round"/>
</g>
<g clip-path="url(#clip11_1969_10397)">
<path d="M91.2723 209.96C91.413 209.913 91.4465 209.729 91.3317 209.635L86.6206 205.774C86.5092 205.683 86.3407 205.745 86.3149 205.887L85.2552 211.696C85.2293 211.838 85.3651 211.955 85.5016 211.909L91.2723 209.96Z" stroke="#EA696E" stroke-width="0.70875" stroke-linecap="round" stroke-linejoin="round"/>
</g>
<g clip-path="url(#clip12_1969_10397)">
<path d="M62.8309 281.621C62.9716 281.573 63.0051 281.389 62.8903 281.295L58.1792 277.435C58.0678 277.343 57.8993 277.405 57.8735 277.547L56.8138 283.356C56.7879 283.498 56.9237 283.615 57.0602 283.569L62.8309 281.621Z" stroke="#EA696E" stroke-width="0.70875" stroke-linecap="round" stroke-linejoin="round"/>
</g>
<g clip-path="url(#clip13_1969_10397)">
<path d="M65.5458 266.746C65.6864 266.698 65.7199 266.514 65.6051 266.42L60.894 262.56C60.7827 262.468 60.6142 262.53 60.5883 262.672L59.5286 268.481C59.5028 268.623 59.6386 268.74 59.775 268.694L65.5458 266.746Z" stroke="#EA696E" stroke-width="0.70875" stroke-linecap="round" stroke-linejoin="round"/>
</g>
<g clip-path="url(#clip14_1969_10397)">
<path d="M68.2587 251.871C68.3993 251.823 68.4328 251.639 68.318 251.545L63.6069 247.685C63.4955 247.593 63.327 247.655 63.3012 247.797L62.2415 253.606C62.2157 253.748 62.3515 253.865 62.4879 253.819L68.2587 251.871Z" stroke="#EA696E" stroke-width="0.70875" stroke-linecap="round" stroke-linejoin="round"/>
</g>
<g clip-path="url(#clip15_1969_10397)">
<path d="M70.9716 236.998C71.1122 236.95 71.1457 236.766 71.0309 236.672L66.3198 232.812C66.2084 232.72 66.0399 232.782 66.0141 232.924L64.9544 238.733C64.9286 238.875 65.0644 238.992 65.2008 238.946L70.9716 236.998Z" stroke="#EA696E" stroke-width="0.70875" stroke-linecap="round" stroke-linejoin="round"/>
</g>
<g clip-path="url(#clip16_1969_10397)">
<path d="M73.6844 222.123C73.8251 222.075 73.8586 221.891 73.7438 221.797L69.0327 217.937C68.9213 217.845 68.7528 217.907 68.727 218.049L67.6673 223.858C67.6414 224 67.7772 224.117 67.9137 224.071L73.6844 222.123Z" stroke="#EA696E" stroke-width="0.70875" stroke-linecap="round" stroke-linejoin="round"/>
</g>
<g clip-path="url(#clip17_1969_10397)">
<path d="M76.3973 207.248C76.538 207.2 76.5715 207.016 76.4567 206.922L71.7456 203.062C71.6342 202.97 71.4657 203.032 71.4399 203.174L70.3802 208.983C70.3543 209.125 70.4901 209.242 70.6266 209.196L76.3973 207.248Z" stroke="#EA696E" stroke-width="0.70875" stroke-linecap="round" stroke-linejoin="round"/>
</g>
<g clip-path="url(#clip18_1969_10397)">
<path d="M47.9579 278.908C48.0985 278.86 48.132 278.677 48.0172 278.582L43.3062 274.722C43.1948 274.63 43.0263 274.692 43.0004 274.834L41.9407 280.644C41.9149 280.785 42.0507 280.903 42.1871 280.857L47.9579 278.908Z" stroke="#EA696E" stroke-width="0.70875" stroke-linecap="round" stroke-linejoin="round"/>
</g>
<g clip-path="url(#clip19_1969_10397)">
<path d="M50.6708 264.033C50.8114 263.985 50.8449 263.802 50.7301 263.707L46.019 259.847C45.9077 259.755 45.7392 259.817 45.7133 259.959L44.6536 265.769C44.6278 265.91 44.7636 266.028 44.9 265.982L50.6708 264.033Z" stroke="#EA696E" stroke-width="0.70875" stroke-linecap="round" stroke-linejoin="round"/>
</g>
<g clip-path="url(#clip20_1969_10397)">
<path d="M53.3837 249.158C53.5243 249.11 53.5578 248.927 53.443 248.832L48.7319 244.972C48.6205 244.88 48.452 244.942 48.4262 245.084L47.3665 250.894C47.3407 251.035 47.4765 251.153 47.6129 251.107L53.3837 249.158Z" stroke="#EA696E" stroke-width="0.70875" stroke-linecap="round" stroke-linejoin="round"/>
</g>
<g clip-path="url(#clip21_1969_10397)">
<path d="M56.0966 234.283C56.2372 234.235 56.2707 234.052 56.1559 233.957L51.4448 230.097C51.3334 230.005 51.1649 230.067 51.1391 230.209L50.0794 236.019C50.0536 236.16 50.1894 236.278 50.3258 236.232L56.0966 234.283Z" stroke="#EA696E" stroke-width="0.70875" stroke-linecap="round" stroke-linejoin="round"/>
</g>
<g clip-path="url(#clip22_1969_10397)">
<path d="M58.8094 219.41C58.9501 219.362 58.9836 219.178 58.8688 219.084L54.1577 215.224C54.0463 215.132 53.8778 215.194 53.852 215.336L52.7923 221.145C52.7664 221.287 52.9022 221.405 53.0387 221.358L58.8094 219.41Z" stroke="#EA696E" stroke-width="0.70875" stroke-linecap="round" stroke-linejoin="round"/>
</g>
<g clip-path="url(#clip23_1969_10397)">
<path d="M61.5223 204.535C61.663 204.487 61.6965 204.303 61.5817 204.209L56.8706 200.349C56.7592 200.257 56.5907 200.319 56.5649 200.461L55.5052 206.27C55.4793 206.412 55.6151 206.53 55.7516 206.483L61.5223 204.535Z" stroke="#EA696E" stroke-width="0.70875" stroke-linecap="round" stroke-linejoin="round"/>
</g>
<g clip-path="url(#clip24_1969_10397)">
<path d="M33.0829 276.195C33.2235 276.147 33.257 275.964 33.1422 275.87L28.4312 272.009C28.3198 271.917 28.1513 271.979 28.1254 272.121L27.0657 277.931C27.0399 278.072 27.1757 278.19 27.3121 278.144L33.0829 276.195Z" stroke="#EA696E" stroke-width="0.70875" stroke-linecap="round" stroke-linejoin="round"/>
</g>
<g clip-path="url(#clip25_1969_10397)">
<path d="M35.7958 261.32C35.9364 261.272 35.9699 261.089 35.8551 260.995L31.144 257.134C31.0327 257.042 30.8642 257.104 30.8383 257.246L29.7786 263.056C29.7528 263.197 29.8886 263.315 30.025 263.269L35.7958 261.32Z" stroke="#EA696E" stroke-width="0.70875" stroke-linecap="round" stroke-linejoin="round"/>
</g>
<g clip-path="url(#clip26_1969_10397)">
<path d="M38.5087 246.445C38.6493 246.397 38.6828 246.214 38.568 246.12L33.8569 242.259C33.7455 242.167 33.577 242.229 33.5512 242.371L32.4915 248.181C32.4657 248.322 32.6015 248.44 32.7379 248.394L38.5087 246.445Z" stroke="#EA696E" stroke-width="0.70875" stroke-linecap="round" stroke-linejoin="round"/>
</g>
<g clip-path="url(#clip27_1969_10397)">
<path d="M41.2216 231.57C41.3622 231.522 41.3957 231.339 41.2809 231.245L36.5698 227.384C36.4584 227.292 36.2899 227.354 36.2641 227.496L35.2044 233.306C35.1786 233.447 35.3144 233.565 35.4508 233.519L41.2216 231.57Z" stroke="#EA696E" stroke-width="0.70875" stroke-linecap="round" stroke-linejoin="round"/>
</g>
<g clip-path="url(#clip28_1969_10397)">
<path d="M43.9364 216.697C44.077 216.649 44.1105 216.466 43.9957 216.371L39.2847 212.511C39.1733 212.419 39.0048 212.481 38.9789 212.623L37.9192 218.433C37.8934 218.574 38.0292 218.692 38.1657 218.646L43.9364 216.697Z" stroke="#EA696E" stroke-width="0.70875" stroke-linecap="round" stroke-linejoin="round"/>
</g>
<g clip-path="url(#clip29_1969_10397)">
<path d="M46.6493 201.822C46.7899 201.774 46.8234 201.591 46.7086 201.496L41.9976 197.636C41.8862 197.544 41.7177 197.606 41.6918 197.748L40.6321 203.558C40.6063 203.699 40.7421 203.817 40.8785 203.771L46.6493 201.822Z" stroke="#EA696E" stroke-width="0.70875" stroke-linecap="round" stroke-linejoin="round"/>
</g>
<g clip-path="url(#clip30_1969_10397)">
<path d="M18.2079 273.48C18.3485 273.432 18.382 273.249 18.2672 273.155L13.5562 269.294C13.4448 269.203 13.2763 269.264 13.2504 269.406L12.1907 275.216C12.1649 275.357 12.3007 275.475 12.4371 275.429L18.2079 273.48Z" stroke="#EA696E" stroke-width="0.70875" stroke-linecap="round" stroke-linejoin="round"/>
</g>
<g clip-path="url(#clip31_1969_10397)">
<path d="M20.9208 258.607C21.0614 258.559 21.0949 258.376 20.9801 258.282L16.269 254.421C16.1577 254.33 15.9892 254.391 15.9633 254.533L14.9036 260.343C14.8778 260.484 15.0136 260.602 15.15 260.556L20.9208 258.607Z" stroke="#EA696E" stroke-width="0.70875" stroke-linecap="round" stroke-linejoin="round"/>
</g>
<g clip-path="url(#clip32_1969_10397)">
<path d="M23.6337 243.732C23.7743 243.684 23.8078 243.501 23.693 243.407L18.9819 239.546C18.8705 239.455 18.702 239.516 18.6762 239.658L17.6165 245.468C17.5907 245.609 17.7265 245.727 17.8629 245.681L23.6337 243.732Z" stroke="#EA696E" stroke-width="0.70875" stroke-linecap="round" stroke-linejoin="round"/>
</g>
<g clip-path="url(#clip33_1969_10397)">
<path d="M26.3485 228.857C26.4892 228.809 26.5226 228.626 26.4078 228.532L21.6968 224.671C21.5854 224.58 21.4169 224.641 21.391 224.783L20.3313 230.593C20.3055 230.734 20.4413 230.852 20.5778 230.806L26.3485 228.857Z" stroke="#EA696E" stroke-width="0.70875" stroke-linecap="round" stroke-linejoin="round"/>
</g>
<g clip-path="url(#clip34_1969_10397)">
<path d="M29.0614 213.982C29.202 213.934 29.2355 213.751 29.1207 213.657L24.4097 209.796C24.2983 209.705 24.1298 209.766 24.1039 209.908L23.0442 215.718C23.0184 215.859 23.1542 215.977 23.2907 215.931L29.0614 213.982Z" stroke="#EA696E" stroke-width="0.70875" stroke-linecap="round" stroke-linejoin="round"/>
</g>
<g clip-path="url(#clip35_1969_10397)">
<path d="M31.7743 199.109C31.9149 199.061 31.9484 198.878 31.8336 198.784L27.1226 194.923C27.0112 194.832 26.8427 194.893 26.8168 195.035L25.7571 200.845C25.7313 200.986 25.8671 201.104 26.0035 201.058L31.7743 199.109Z" stroke="#EA696E" stroke-width="0.70875" stroke-linecap="round" stroke-linejoin="round"/>
</g>
<defs>
<clipPath id="clip0_1969_10397">
<rect width="7.56" height="7.56" fill="white" transform="matrix(0.179443 -0.983768 -0.983768 -0.179443 92.8457 290.77)"/>
</clipPath>
<clipPath id="clip1_1969_10397">
<rect width="7.56" height="7.56" fill="white" transform="matrix(0.179443 -0.983768 -0.983768 -0.179443 95.5586 275.895)"/>
</clipPath>
<clipPath id="clip2_1969_10397">
<rect width="7.56" height="7.56" fill="white" transform="matrix(0.179443 -0.983768 -0.983768 -0.179443 98.2715 261.02)"/>
</clipPath>
<clipPath id="clip3_1969_10397">
<rect width="7.56" height="7.56" fill="white" transform="matrix(0.179443 -0.983768 -0.983768 -0.179443 100.984 246.146)"/>
</clipPath>
<clipPath id="clip4_1969_10397">
<rect width="7.56" height="7.56" fill="white" transform="matrix(0.179443 -0.983768 -0.983768 -0.179443 103.699 231.271)"/>
</clipPath>
<clipPath id="clip5_1969_10397">
<rect width="7.56" height="7.56" fill="white" transform="matrix(0.179443 -0.983768 -0.983768 -0.179443 106.412 216.396)"/>
</clipPath>
<clipPath id="clip6_1969_10397">
<rect width="7.56" height="7.56" fill="white" transform="matrix(0.179443 -0.983768 -0.983768 -0.179443 77.9707 288.057)"/>
</clipPath>
<clipPath id="clip7_1969_10397">
<rect width="7.56" height="7.56" fill="white" transform="matrix(0.179443 -0.983768 -0.983768 -0.179443 80.6836 273.182)"/>
</clipPath>
<clipPath id="clip8_1969_10397">
<rect width="7.56" height="7.56" fill="white" transform="matrix(0.179443 -0.983768 -0.983768 -0.179443 83.3984 258.307)"/>
</clipPath>
<clipPath id="clip9_1969_10397">
<rect width="7.56" height="7.56" fill="white" transform="matrix(0.179443 -0.983768 -0.983768 -0.179443 86.1113 243.434)"/>
</clipPath>
<clipPath id="clip10_1969_10397">
<rect width="7.56" height="7.56" fill="white" transform="matrix(0.179443 -0.983768 -0.983768 -0.179443 88.8242 228.559)"/>
</clipPath>
<clipPath id="clip11_1969_10397">
<rect width="7.56" height="7.56" fill="white" transform="matrix(0.179443 -0.983768 -0.983768 -0.179443 91.5371 213.684)"/>
</clipPath>
<clipPath id="clip12_1969_10397">
<rect width="7.56" height="7.56" fill="white" transform="matrix(0.179443 -0.983768 -0.983768 -0.179443 63.0957 285.344)"/>
</clipPath>
<clipPath id="clip13_1969_10397">
<rect width="7.56" height="7.56" fill="white" transform="matrix(0.179443 -0.983768 -0.983768 -0.179443 65.8105 270.469)"/>
</clipPath>
<clipPath id="clip14_1969_10397">
<rect width="7.56" height="7.56" fill="white" transform="matrix(0.179443 -0.983768 -0.983768 -0.179443 68.5234 255.594)"/>
</clipPath>
<clipPath id="clip15_1969_10397">
<rect width="7.56" height="7.56" fill="white" transform="matrix(0.179443 -0.983768 -0.983768 -0.179443 71.2363 240.719)"/>
</clipPath>
<clipPath id="clip16_1969_10397">
<rect width="7.56" height="7.56" fill="white" transform="matrix(0.179443 -0.983768 -0.983768 -0.179443 73.9492 225.846)"/>
</clipPath>
<clipPath id="clip17_1969_10397">
<rect width="7.56" height="7.56" fill="white" transform="matrix(0.179443 -0.983768 -0.983768 -0.179443 76.6621 210.971)"/>
</clipPath>
<clipPath id="clip18_1969_10397">
<rect width="7.56" height="7.56" fill="white" transform="matrix(0.179443 -0.983768 -0.983768 -0.179443 48.2227 282.631)"/>
</clipPath>
<clipPath id="clip19_1969_10397">
<rect width="7.56" height="7.56" fill="white" transform="matrix(0.179443 -0.983768 -0.983768 -0.179443 50.9355 267.756)"/>
</clipPath>
<clipPath id="clip20_1969_10397">
<rect width="7.56" height="7.56" fill="white" transform="matrix(0.179443 -0.983768 -0.983768 -0.179443 53.6484 252.881)"/>
</clipPath>
<clipPath id="clip21_1969_10397">
<rect width="7.56" height="7.56" fill="white" transform="matrix(0.179443 -0.983768 -0.983768 -0.179443 56.3613 238.006)"/>
</clipPath>
<clipPath id="clip22_1969_10397">
<rect width="7.56" height="7.56" fill="white" transform="matrix(0.179443 -0.983768 -0.983768 -0.179443 59.0742 223.133)"/>
</clipPath>
<clipPath id="clip23_1969_10397">
<rect width="7.56" height="7.56" fill="white" transform="matrix(0.179443 -0.983768 -0.983768 -0.179443 61.7871 208.258)"/>
</clipPath>
<clipPath id="clip24_1969_10397">
<rect width="7.56" height="7.56" fill="white" transform="matrix(0.179443 -0.983768 -0.983768 -0.179443 33.3477 279.916)"/>
</clipPath>
<clipPath id="clip25_1969_10397">
<rect width="7.56" height="7.56" fill="white" transform="matrix(0.179443 -0.983768 -0.983768 -0.179443 36.0605 265.043)"/>
</clipPath>
<clipPath id="clip26_1969_10397">
<rect width="7.56" height="7.56" fill="white" transform="matrix(0.179443 -0.983768 -0.983768 -0.179443 38.7734 250.168)"/>
</clipPath>
<clipPath id="clip27_1969_10397">
<rect width="7.56" height="7.56" fill="white" transform="matrix(0.179443 -0.983768 -0.983768 -0.179443 41.4863 235.293)"/>
</clipPath>
<clipPath id="clip28_1969_10397">
<rect width="7.56" height="7.56" fill="white" transform="matrix(0.179443 -0.983768 -0.983768 -0.179443 44.2012 220.418)"/>
</clipPath>
<clipPath id="clip29_1969_10397">
<rect width="7.56" height="7.56" fill="white" transform="matrix(0.179443 -0.983768 -0.983768 -0.179443 46.9141 205.545)"/>
</clipPath>
<clipPath id="clip30_1969_10397">
<rect width="7.56" height="7.56" fill="white" transform="matrix(0.179443 -0.983768 -0.983768 -0.179443 18.4727 277.203)"/>
</clipPath>
<clipPath id="clip31_1969_10397">
<rect width="7.56" height="7.56" fill="white" transform="matrix(0.179443 -0.983768 -0.983768 -0.179443 21.1855 262.328)"/>
</clipPath>
<clipPath id="clip32_1969_10397">
<rect width="7.56" height="7.56" fill="white" transform="matrix(0.179443 -0.983768 -0.983768 -0.179443 23.9004 247.455)"/>
</clipPath>
<clipPath id="clip33_1969_10397">
<rect width="7.56" height="7.56" fill="white" transform="matrix(0.179443 -0.983768 -0.983768 -0.179443 26.6133 232.58)"/>
</clipPath>
<clipPath id="clip34_1969_10397">
<rect width="7.56" height="7.56" fill="white" transform="matrix(0.179443 -0.983768 -0.983768 -0.179443 29.3262 217.705)"/>
</clipPath>
<clipPath id="clip35_1969_10397">
<rect width="7.56" height="7.56" fill="white" transform="matrix(0.179443 -0.983768 -0.983768 -0.179443 32.0391 202.83)"/>
</clipPath>
</defs>
</svg>
