<svg width="97" height="97" viewBox="0 0 97 97" fill="none" xmlns="http://www.w3.org/2000/svg">
<g clip-path="url(#clip0_1969_10549)">
<path d="M81.5458 93.0092C81.6864 92.9617 81.7199 92.7781 81.6051 92.684L76.894 88.8232C76.7827 88.7319 76.6142 88.7938 76.5883 88.9355L75.5286 94.7451C75.5028 94.8868 75.6386 95.0042 75.775 94.9581L81.5458 93.0092Z" stroke="#EA696E" stroke-width="0.70875" stroke-linecap="round" stroke-linejoin="round"/>
</g>
<g clip-path="url(#clip1_1969_10549)">
<path d="M84.2587 78.1342C84.3993 78.0867 84.4328 77.9031 84.318 77.809L79.6069 73.9482C79.4955 73.8569 79.327 73.9188 79.3012 74.0605L78.2415 79.8701C78.2157 80.0118 78.3515 80.1292 78.4879 80.0831L84.2587 78.1342Z" stroke="#EA696E" stroke-width="0.70875" stroke-linecap="round" stroke-linejoin="round"/>
</g>
<g clip-path="url(#clip2_1969_10549)">
<path d="M86.9716 63.2612C87.1122 63.2137 87.1457 63.03 87.0309 62.9359L82.3198 59.0752C82.2084 58.9839 82.0399 59.0457 82.0141 59.1874L80.9544 64.997C80.9286 65.1387 81.0644 65.2561 81.2008 65.21L86.9716 63.2612Z" stroke="#EA696E" stroke-width="0.70875" stroke-linecap="round" stroke-linejoin="round"/>
</g>
<g clip-path="url(#clip3_1969_10549)">
<path d="M89.6844 48.3862C89.8251 48.3387 89.8586 48.155 89.7438 48.0609L85.0327 44.2002C84.9213 44.1089 84.7528 44.1707 84.727 44.3124L83.6673 50.122C83.6414 50.2637 83.7772 50.3811 83.9137 50.335L89.6844 48.3862Z" stroke="#EA696E" stroke-width="0.70875" stroke-linecap="round" stroke-linejoin="round"/>
</g>
<g clip-path="url(#clip4_1969_10549)">
<path d="M92.3993 33.5112C92.5399 33.4637 92.5734 33.28 92.4586 33.1859L87.7476 29.3252C87.6362 29.2339 87.4677 29.2957 87.4418 29.4374L86.3821 35.247C86.3563 35.3887 86.4921 35.5061 86.6285 35.46L92.3993 33.5112Z" stroke="#EA696E" stroke-width="0.70875" stroke-linecap="round" stroke-linejoin="round"/>
</g>
<g clip-path="url(#clip5_1969_10549)">
<path d="M95.1122 18.6362C95.2528 18.5887 95.2863 18.405 95.1715 18.3109L90.4605 14.4502C90.3491 14.3589 90.1806 14.4207 90.1547 14.5624L89.095 20.372C89.0692 20.5137 89.205 20.6311 89.3414 20.585L95.1122 18.6362Z" stroke="#EA696E" stroke-width="0.70875" stroke-linecap="round" stroke-linejoin="round"/>
</g>
<g clip-path="url(#clip6_1969_10549)">
<path d="M66.6708 90.2963C66.8114 90.2488 66.8449 90.0652 66.7301 89.9711L62.019 86.1103C61.9077 86.019 61.7392 86.0809 61.7133 86.2226L60.6536 92.0322C60.6278 92.1739 60.7636 92.2913 60.9 92.2452L66.6708 90.2963Z" stroke="#EA696E" stroke-width="0.70875" stroke-linecap="round" stroke-linejoin="round"/>
</g>
<g clip-path="url(#clip7_1969_10549)">
<path d="M69.3837 75.4213C69.5243 75.3738 69.5578 75.1902 69.443 75.0961L64.7319 71.2353C64.6205 71.144 64.452 71.2059 64.4262 71.3476L63.3665 77.1572C63.3407 77.2989 63.4765 77.4163 63.6129 77.3702L69.3837 75.4213Z" stroke="#EA696E" stroke-width="0.70875" stroke-linecap="round" stroke-linejoin="round"/>
</g>
<g clip-path="url(#clip8_1969_10549)">
<path d="M72.0966 60.5463C72.2372 60.4988 72.2707 60.3152 72.1559 60.2211L67.4448 56.3603C67.3334 56.269 67.1649 56.3309 67.1391 56.4726L66.0794 62.2822C66.0536 62.4239 66.1894 62.5413 66.3258 62.4952L72.0966 60.5463Z" stroke="#EA696E" stroke-width="0.70875" stroke-linecap="round" stroke-linejoin="round"/>
</g>
<g clip-path="url(#clip9_1969_10549)">
<path d="M74.8114 45.6733C74.952 45.6258 74.9855 45.4421 74.8707 45.348L70.1597 41.4873C70.0483 41.396 69.8798 41.4578 69.8539 41.5995L68.7942 47.4091C68.7684 47.5508 68.9042 47.6682 69.0407 47.6221L74.8114 45.6733Z" stroke="#EA696E" stroke-width="0.70875" stroke-linecap="round" stroke-linejoin="round"/>
</g>
<g clip-path="url(#clip10_1969_10549)">
<path d="M77.5243 30.7983C77.6649 30.7508 77.6984 30.5671 77.5836 30.473L72.8726 26.6123C72.7612 26.521 72.5927 26.5828 72.5668 26.7245L71.5071 32.5341C71.4813 32.6758 71.6171 32.7932 71.7535 32.7471L77.5243 30.7983Z" stroke="#EA696E" stroke-width="0.70875" stroke-linecap="round" stroke-linejoin="round"/>
</g>
<g clip-path="url(#clip11_1969_10549)">
<path d="M80.2372 15.9233C80.3778 15.8758 80.4113 15.6921 80.2965 15.598L75.5855 11.7373C75.4741 11.646 75.3056 11.7078 75.2797 11.8495L74.22 17.6591C74.1942 17.8008 74.33 17.9182 74.4664 17.8721L80.2372 15.9233Z" stroke="#EA696E" stroke-width="0.70875" stroke-linecap="round" stroke-linejoin="round"/>
</g>
<g clip-path="url(#clip12_1969_10549)">
<path d="M51.7958 87.5834C51.9364 87.5359 51.9699 87.3523 51.8551 87.2582L47.144 83.3974C47.0327 83.3061 46.8642 83.368 46.8383 83.5097L45.7786 89.3193C45.7528 89.461 45.8886 89.5784 46.025 89.5323L51.7958 87.5834Z" stroke="#EA696E" stroke-width="0.70875" stroke-linecap="round" stroke-linejoin="round"/>
</g>
<g clip-path="url(#clip13_1969_10549)">
<path d="M54.5106 72.7084C54.6513 72.6609 54.6848 72.4773 54.5699 72.3832L49.8589 68.5224C49.7475 68.4311 49.579 68.493 49.5532 68.6347L48.4935 74.4443C48.4676 74.586 48.6034 74.7034 48.7399 74.6573L54.5106 72.7084Z" stroke="#EA696E" stroke-width="0.70875" stroke-linecap="round" stroke-linejoin="round"/>
</g>
<g clip-path="url(#clip14_1969_10549)">
<path d="M57.2235 57.8334C57.3642 57.7859 57.3976 57.6023 57.2828 57.5082L52.5718 53.6474C52.4604 53.5561 52.2919 53.618 52.266 53.7597L51.2063 59.5693C51.1805 59.711 51.3163 59.8284 51.4528 59.7823L57.2235 57.8334Z" stroke="#EA696E" stroke-width="0.70875" stroke-linecap="round" stroke-linejoin="round"/>
</g>
<g clip-path="url(#clip15_1969_10549)">
<path d="M59.9364 42.9604C60.077 42.9129 60.1105 42.7293 59.9957 42.6351L55.2847 38.7744C55.1733 38.6831 55.0048 38.745 54.9789 38.8866L53.9192 44.6963C53.8934 44.8379 54.0292 44.9553 54.1657 44.9092L59.9364 42.9604Z" stroke="#EA696E" stroke-width="0.70875" stroke-linecap="round" stroke-linejoin="round"/>
</g>
<g clip-path="url(#clip16_1969_10549)">
<path d="M62.6493 28.0854C62.7899 28.0379 62.8234 27.8543 62.7086 27.7601L57.9976 23.8994C57.8862 23.8081 57.7177 23.87 57.6918 24.0116L56.6321 29.8213C56.6063 29.9629 56.7421 30.0803 56.8785 30.0342L62.6493 28.0854Z" stroke="#EA696E" stroke-width="0.70875" stroke-linecap="round" stroke-linejoin="round"/>
</g>
<g clip-path="url(#clip17_1969_10549)">
<path d="M65.3622 13.2104C65.5028 13.1629 65.5363 12.9793 65.4215 12.8851L60.7105 9.0244C60.5991 8.93309 60.4306 8.99496 60.4047 9.13664L59.345 14.9463C59.3192 15.0879 59.455 15.2053 59.5914 15.1592L65.3622 13.2104Z" stroke="#EA696E" stroke-width="0.70875" stroke-linecap="round" stroke-linejoin="round"/>
</g>
<g clip-path="url(#clip18_1969_10549)">
<path d="M36.9227 84.8706C37.0634 84.823 37.0969 84.6394 36.9821 84.5453L32.271 80.6846C32.1596 80.5932 31.9911 80.6551 31.9653 80.7968L30.9056 86.6064C30.8797 86.7481 31.0155 86.8655 31.152 86.8194L36.9227 84.8706Z" stroke="#EA696E" stroke-width="0.70875" stroke-linecap="round" stroke-linejoin="round"/>
</g>
<g clip-path="url(#clip19_1969_10549)">
<path d="M39.6356 69.9956C39.7763 69.948 39.8098 69.7644 39.6949 69.6703L34.9839 65.8096C34.8725 65.7182 34.704 65.7801 34.6782 65.9218L33.6185 71.7314C33.5926 71.8731 33.7284 71.9905 33.8649 71.9444L39.6356 69.9956Z" stroke="#EA696E" stroke-width="0.70875" stroke-linecap="round" stroke-linejoin="round"/>
</g>
<g clip-path="url(#clip20_1969_10549)">
<path d="M42.3485 55.1206C42.4892 55.073 42.5226 54.8894 42.4078 54.7953L37.6968 50.9346C37.5854 50.8432 37.4169 50.9051 37.391 51.0468L36.3313 56.8564C36.3055 56.9981 36.4413 57.1155 36.5778 57.0694L42.3485 55.1206Z" stroke="#EA696E" stroke-width="0.70875" stroke-linecap="round" stroke-linejoin="round"/>
</g>
<g clip-path="url(#clip21_1969_10549)">
<path d="M45.0614 40.2456C45.202 40.198 45.2355 40.0144 45.1207 39.9203L40.4097 36.0596C40.2983 35.9682 40.1298 36.0301 40.1039 36.1718L39.0442 41.9814C39.0184 42.1231 39.1542 42.2405 39.2907 42.1944L45.0614 40.2456Z" stroke="#EA696E" stroke-width="0.70875" stroke-linecap="round" stroke-linejoin="round"/>
</g>
<g clip-path="url(#clip22_1969_10549)">
<path d="M47.7743 25.3725C47.9149 25.325 47.9484 25.1414 47.8336 25.0473L43.1226 21.1865C43.0112 21.0952 42.8427 21.1571 42.8168 21.2987L41.7571 27.1084C41.7313 27.2501 41.8671 27.3674 42.0035 27.3214L47.7743 25.3725Z" stroke="#EA696E" stroke-width="0.70875" stroke-linecap="round" stroke-linejoin="round"/>
</g>
<g clip-path="url(#clip23_1969_10549)">
<path d="M50.4872 10.4975C50.6278 10.45 50.6613 10.2664 50.5465 10.1723L45.8355 6.31151C45.7241 6.2202 45.5556 6.28207 45.5297 6.42375L44.47 12.2334C44.4442 12.3751 44.58 12.4924 44.7164 12.4464L50.4872 10.4975Z" stroke="#EA696E" stroke-width="0.70875" stroke-linecap="round" stroke-linejoin="round"/>
</g>
<g clip-path="url(#clip24_1969_10549)">
<path d="M22.0477 82.1577C22.1884 82.1102 22.2219 81.9265 22.1071 81.8324L17.396 77.9717C17.2846 77.8804 17.1161 77.9422 17.0903 78.0839L16.0306 83.8935C16.0047 84.0352 16.1405 84.1526 16.277 84.1065L22.0477 82.1577Z" stroke="#EA696E" stroke-width="0.70875" stroke-linecap="round" stroke-linejoin="round"/>
</g>
<g clip-path="url(#clip25_1969_10549)">
<path d="M24.7606 67.2827C24.9013 67.2352 24.9348 67.0515 24.8199 66.9574L20.1089 63.0967C19.9975 63.0054 19.829 63.0672 19.8032 63.2089L18.7435 69.0185C18.7176 69.1602 18.8534 69.2776 18.9899 69.2315L24.7606 67.2827Z" stroke="#EA696E" stroke-width="0.70875" stroke-linecap="round" stroke-linejoin="round"/>
</g>
<g clip-path="url(#clip26_1969_10549)">
<path d="M27.4735 52.4077C27.6142 52.3602 27.6476 52.1765 27.5328 52.0824L22.8218 48.2217C22.7104 48.1304 22.5419 48.1922 22.516 48.3339L21.4563 54.1435C21.4305 54.2852 21.5663 54.4026 21.7028 54.3565L27.4735 52.4077Z" stroke="#EA696E" stroke-width="0.70875" stroke-linecap="round" stroke-linejoin="round"/>
</g>
<g clip-path="url(#clip27_1969_10549)">
<path d="M30.1864 37.5327C30.327 37.4852 30.3605 37.3015 30.2457 37.2074L25.5347 33.3467C25.4233 33.2554 25.2548 33.3172 25.2289 33.4589L24.1692 39.2685C24.1434 39.4102 24.2792 39.5276 24.4157 39.4815L30.1864 37.5327Z" stroke="#EA696E" stroke-width="0.70875" stroke-linecap="round" stroke-linejoin="round"/>
</g>
<g clip-path="url(#clip28_1969_10549)">
<path d="M32.9012 22.6596C33.0419 22.6121 33.0754 22.4285 32.9606 22.3344L28.2495 18.4736C28.1381 18.3823 27.9696 18.4442 27.9438 18.5859L26.8841 24.3955C26.8582 24.5372 26.994 24.6545 27.1305 24.6085L32.9012 22.6596Z" stroke="#EA696E" stroke-width="0.70875" stroke-linecap="round" stroke-linejoin="round"/>
</g>
<g clip-path="url(#clip29_1969_10549)">
<path d="M35.6141 7.78462C35.7548 7.73711 35.7883 7.55347 35.6735 7.45936L30.9624 3.59861C30.851 3.50731 30.6825 3.56917 30.6567 3.71086L29.597 9.52048C29.5711 9.66217 29.7069 9.77954 29.8434 9.73346L35.6141 7.78462Z" stroke="#EA696E" stroke-width="0.70875" stroke-linecap="round" stroke-linejoin="round"/>
</g>
<g clip-path="url(#clip30_1969_10549)">
<path d="M7.17272 79.4428C7.31337 79.3953 7.34687 79.2117 7.23205 79.1176L2.521 75.2568C2.40961 75.1655 2.24111 75.2274 2.21526 75.3691L1.15557 81.1787C1.12972 81.3204 1.26553 81.4377 1.40198 81.3917L7.17272 79.4428Z" stroke="#EA696E" stroke-width="0.70875" stroke-linecap="round" stroke-linejoin="round"/>
</g>
<g clip-path="url(#clip31_1969_10549)">
<path d="M9.88562 64.5698C10.0263 64.5223 10.0598 64.3386 9.94494 64.2445L5.23389 60.3838C5.1225 60.2925 4.954 60.3543 4.92815 60.496L3.86846 66.3056C3.84261 66.4473 3.97842 66.5647 4.11487 66.5186L9.88562 64.5698Z" stroke="#EA696E" stroke-width="0.70875" stroke-linecap="round" stroke-linejoin="round"/>
</g>
<g clip-path="url(#clip32_1969_10549)">
<path d="M12.5985 49.6948C12.7392 49.6473 12.7726 49.4636 12.6578 49.3695L7.94678 45.5088C7.83539 45.4175 7.66689 45.4793 7.64104 45.621L6.58135 51.4306C6.5555 51.5723 6.69131 51.6897 6.82776 51.6436L12.5985 49.6948Z" stroke="#EA696E" stroke-width="0.70875" stroke-linecap="round" stroke-linejoin="round"/>
</g>
<g clip-path="url(#clip33_1969_10549)">
<path d="M15.3133 34.8198C15.454 34.7723 15.4875 34.5886 15.3727 34.4945L10.6616 30.6338C10.5502 30.5425 10.3817 30.6043 10.3559 30.746L9.29619 36.5556C9.27035 36.6973 9.40615 36.8147 9.54261 36.7686L15.3133 34.8198Z" stroke="#EA696E" stroke-width="0.70875" stroke-linecap="round" stroke-linejoin="round"/>
</g>
<g clip-path="url(#clip34_1969_10549)">
<path d="M18.0262 19.9448C18.1669 19.8973 18.2004 19.7136 18.0856 19.6195L13.3745 15.7588C13.2631 15.6675 13.0946 15.7293 13.0688 15.871L12.0091 21.6806C11.9832 21.8223 12.119 21.9397 12.2555 21.8936L18.0262 19.9448Z" stroke="#EA696E" stroke-width="0.70875" stroke-linecap="round" stroke-linejoin="round"/>
</g>
<g clip-path="url(#clip35_1969_10549)">
<path d="M20.7391 5.07173C20.8798 5.02422 20.9133 4.84058 20.7985 4.74647L16.0874 0.885724C15.976 0.794418 15.8075 0.856284 15.7817 0.997964L14.722 6.80759C14.6961 6.94928 14.8319 7.06665 14.9684 7.02057L20.7391 5.07173Z" stroke="#EA696E" stroke-width="0.70875" stroke-linecap="round" stroke-linejoin="round"/>
</g>
<defs>
<clipPath id="clip0_1969_10549">
<rect width="7.56" height="7.56" fill="white" transform="matrix(0.179443 -0.983768 -0.983768 -0.179443 81.8105 96.7324)"/>
</clipPath>
<clipPath id="clip1_1969_10549">
<rect width="7.56" height="7.56" fill="white" transform="matrix(0.179443 -0.983768 -0.983768 -0.179443 84.5234 81.8574)"/>
</clipPath>
<clipPath id="clip2_1969_10549">
<rect width="7.56" height="7.56" fill="white" transform="matrix(0.179443 -0.983768 -0.983768 -0.179443 87.2363 66.9824)"/>
</clipPath>
<clipPath id="clip3_1969_10549">
<rect width="7.56" height="7.56" fill="white" transform="matrix(0.179443 -0.983768 -0.983768 -0.179443 89.9492 52.1094)"/>
</clipPath>
<clipPath id="clip4_1969_10549">
<rect width="7.56" height="7.56" fill="white" transform="matrix(0.179443 -0.983768 -0.983768 -0.179443 92.6641 37.2344)"/>
</clipPath>
<clipPath id="clip5_1969_10549">
<rect width="7.56" height="7.56" fill="white" transform="matrix(0.179443 -0.983768 -0.983768 -0.179443 95.377 22.3594)"/>
</clipPath>
<clipPath id="clip6_1969_10549">
<rect width="7.56" height="7.56" fill="white" transform="matrix(0.179443 -0.983768 -0.983768 -0.179443 66.9355 94.0195)"/>
</clipPath>
<clipPath id="clip7_1969_10549">
<rect width="7.56" height="7.56" fill="white" transform="matrix(0.179443 -0.983768 -0.983768 -0.179443 69.6484 79.1445)"/>
</clipPath>
<clipPath id="clip8_1969_10549">
<rect width="7.56" height="7.56" fill="white" transform="matrix(0.179443 -0.983768 -0.983768 -0.179443 72.3633 64.2695)"/>
</clipPath>
<clipPath id="clip9_1969_10549">
<rect width="7.56" height="7.56" fill="white" transform="matrix(0.179443 -0.983768 -0.983768 -0.179443 75.0762 49.3965)"/>
</clipPath>
<clipPath id="clip10_1969_10549">
<rect width="7.56" height="7.56" fill="white" transform="matrix(0.179443 -0.983768 -0.983768 -0.179443 77.7891 34.5215)"/>
</clipPath>
<clipPath id="clip11_1969_10549">
<rect width="7.56" height="7.56" fill="white" transform="matrix(0.179443 -0.983768 -0.983768 -0.179443 80.502 19.6465)"/>
</clipPath>
<clipPath id="clip12_1969_10549">
<rect width="7.56" height="7.56" fill="white" transform="matrix(0.179443 -0.983768 -0.983768 -0.179443 52.0605 91.3066)"/>
</clipPath>
<clipPath id="clip13_1969_10549">
<rect width="7.56" height="7.56" fill="white" transform="matrix(0.179443 -0.983768 -0.983768 -0.179443 54.7754 76.4316)"/>
</clipPath>
<clipPath id="clip14_1969_10549">
<rect width="7.56" height="7.56" fill="white" transform="matrix(0.179443 -0.983768 -0.983768 -0.179443 57.4883 61.5566)"/>
</clipPath>
<clipPath id="clip15_1969_10549">
<rect width="7.56" height="7.56" fill="white" transform="matrix(0.179443 -0.983768 -0.983768 -0.179443 60.2012 46.6816)"/>
</clipPath>
<clipPath id="clip16_1969_10549">
<rect width="7.56" height="7.56" fill="white" transform="matrix(0.179443 -0.983768 -0.983768 -0.179443 62.9141 31.8086)"/>
</clipPath>
<clipPath id="clip17_1969_10549">
<rect width="7.56" height="7.56" fill="white" transform="matrix(0.179443 -0.983768 -0.983768 -0.179443 65.627 16.9336)"/>
</clipPath>
<clipPath id="clip18_1969_10549">
<rect width="7.56" height="7.56" fill="white" transform="matrix(0.179443 -0.983768 -0.983768 -0.179443 37.1875 88.5938)"/>
</clipPath>
<clipPath id="clip19_1969_10549">
<rect width="7.56" height="7.56" fill="white" transform="matrix(0.179443 -0.983768 -0.983768 -0.179443 39.9004 73.7188)"/>
</clipPath>
<clipPath id="clip20_1969_10549">
<rect width="7.56" height="7.56" fill="white" transform="matrix(0.179443 -0.983768 -0.983768 -0.179443 42.6133 58.8438)"/>
</clipPath>
<clipPath id="clip21_1969_10549">
<rect width="7.56" height="7.56" fill="white" transform="matrix(0.179443 -0.983768 -0.983768 -0.179443 45.3262 43.9688)"/>
</clipPath>
<clipPath id="clip22_1969_10549">
<rect width="7.56" height="7.56" fill="white" transform="matrix(0.179443 -0.983768 -0.983768 -0.179443 48.0391 29.0957)"/>
</clipPath>
<clipPath id="clip23_1969_10549">
<rect width="7.56" height="7.56" fill="white" transform="matrix(0.179443 -0.983768 -0.983768 -0.179443 50.752 14.2207)"/>
</clipPath>
<clipPath id="clip24_1969_10549">
<rect width="7.56" height="7.56" fill="white" transform="matrix(0.179443 -0.983768 -0.983768 -0.179443 22.3125 85.8789)"/>
</clipPath>
<clipPath id="clip25_1969_10549">
<rect width="7.56" height="7.56" fill="white" transform="matrix(0.179443 -0.983768 -0.983768 -0.179443 25.0254 71.0059)"/>
</clipPath>
<clipPath id="clip26_1969_10549">
<rect width="7.56" height="7.56" fill="white" transform="matrix(0.179443 -0.983768 -0.983768 -0.179443 27.7383 56.1309)"/>
</clipPath>
<clipPath id="clip27_1969_10549">
<rect width="7.56" height="7.56" fill="white" transform="matrix(0.179443 -0.983768 -0.983768 -0.179443 30.4512 41.2559)"/>
</clipPath>
<clipPath id="clip28_1969_10549">
<rect width="7.56" height="7.56" fill="white" transform="matrix(0.179443 -0.983768 -0.983768 -0.179443 33.166 26.3809)"/>
</clipPath>
<clipPath id="clip29_1969_10549">
<rect width="7.56" height="7.56" fill="white" transform="matrix(0.179443 -0.983768 -0.983768 -0.179443 35.8789 11.5078)"/>
</clipPath>
<clipPath id="clip30_1969_10549">
<rect width="7.56" height="7.56" fill="white" transform="matrix(0.179443 -0.983768 -0.983768 -0.179443 7.4375 83.166)"/>
</clipPath>
<clipPath id="clip31_1969_10549">
<rect width="7.56" height="7.56" fill="white" transform="matrix(0.179443 -0.983768 -0.983768 -0.179443 10.1504 68.291)"/>
</clipPath>
<clipPath id="clip32_1969_10549">
<rect width="7.56" height="7.56" fill="white" transform="matrix(0.179443 -0.983768 -0.983768 -0.179443 12.8652 53.418)"/>
</clipPath>
<clipPath id="clip33_1969_10549">
<rect width="7.56" height="7.56" fill="white" transform="matrix(0.179443 -0.983768 -0.983768 -0.179443 15.5781 38.543)"/>
</clipPath>
<clipPath id="clip34_1969_10549">
<rect width="7.56" height="7.56" fill="white" transform="matrix(0.179443 -0.983768 -0.983768 -0.179443 18.291 23.668)"/>
</clipPath>
<clipPath id="clip35_1969_10549">
<rect width="7.56" height="7.56" fill="white" transform="matrix(0.179443 -0.983768 -0.983768 -0.179443 21.0039 8.79297)"/>
</clipPath>
</defs>
</svg>
