<svg width="40" height="40" viewBox="0 0 40 40" fill="none" xmlns="http://www.w3.org/2000/svg">
<path d="M31.2492 24.0622C30.131 24.0616 29.0498 24.4625 28.2023 25.1919L24.1992 22.0778C24.5204 21.4322 24.6873 20.7208 24.6867 19.9997C24.6861 19.8117 24.6746 19.6238 24.6523 19.4372L27.1867 18.5934C27.754 19.579 28.6604 20.3248 29.7368 20.6917C30.8133 21.0586 31.9864 21.0217 33.0376 20.5878C34.0888 20.1539 34.9465 19.3526 35.4507 18.3332C35.955 17.3139 36.0714 16.1459 35.7784 15.0471C35.4854 13.9482 34.8028 12.9934 33.858 12.3604C32.9131 11.7275 31.7704 11.4596 30.6427 11.6068C29.515 11.7539 28.4792 12.306 27.7284 13.1602C26.9776 14.0144 26.5629 15.1124 26.5617 16.2497C26.5622 16.4377 26.5737 16.6255 26.596 16.8122L24.0617 17.6559C23.5658 16.792 22.8069 16.1092 21.8956 15.707C20.9844 15.3047 19.9685 15.2042 18.996 15.42L17.7242 12.5606C18.6697 11.8863 19.3313 10.8849 19.5807 9.75061C19.8301 8.6163 19.6495 7.4298 19.0739 6.42105C18.4983 5.41231 17.5687 4.65316 16.4653 4.29073C15.3619 3.9283 14.1633 3.98839 13.1016 4.45937C12.04 4.93034 11.191 5.77865 10.7192 6.83991C10.2474 7.90116 10.1864 9.09977 10.548 10.2035C10.9095 11.3071 11.668 12.2373 12.6762 12.8137C13.6845 13.39 14.8709 13.5716 16.0054 13.3231L17.2773 16.1825C16.327 16.8584 15.6635 17.865 15.4172 19.0049C15.1709 20.1447 15.3595 21.3355 15.946 22.3434L11.5617 26.2497C10.6293 25.5517 9.47103 25.2247 8.31133 25.3322C7.15163 25.4396 6.07313 25.9738 5.28489 26.8312C4.49666 27.6886 4.05484 28.8081 4.04509 29.9727C4.03533 31.1374 4.45834 32.2641 5.2321 33.1346C6.00586 34.0051 7.07526 34.5573 8.233 34.6841C9.39074 34.811 10.5543 34.5035 11.4982 33.8212C12.4421 33.1389 13.0991 32.1305 13.3418 30.9914C13.5844 29.8523 13.3955 28.6637 12.8117 27.6559L17.1867 23.7497C18.0383 24.3897 19.0831 24.7196 20.1479 24.6847C21.2126 24.6497 22.2335 24.252 23.0413 23.5575L27.0445 26.6715C26.5928 27.5848 26.4509 28.6204 26.6404 29.6214C26.8299 30.6225 27.3404 31.5346 28.0946 32.2196C28.8488 32.9046 29.8057 33.3252 30.8203 33.4178C31.835 33.5103 32.8522 33.2698 33.7179 32.7325C34.5836 32.1953 35.2507 31.3906 35.6181 30.4403C35.9856 29.4901 36.0335 28.4459 35.7545 27.466C35.4755 26.4861 34.8848 25.6238 34.0718 25.0096C33.2589 24.3954 32.268 24.0628 31.2492 24.0622ZM31.2492 13.4372C31.8054 13.4372 32.3492 13.6021 32.8117 13.9112C33.2742 14.2202 33.6347 14.6595 33.8476 15.1734C34.0604 15.6873 34.1161 16.2528 34.0076 16.7984C33.8991 17.3439 33.6312 17.8451 33.2379 18.2384C32.8446 18.6317 32.3434 18.8996 31.7979 19.0081C31.2523 19.1166 30.6868 19.0609 30.1729 18.8481C29.6589 18.6352 29.2197 18.2747 28.9107 17.8122C28.6016 17.3497 28.4367 16.8059 28.4367 16.2497C28.4367 15.5037 28.733 14.7884 29.2604 14.2609C29.7879 13.7335 30.5032 13.4372 31.2492 13.4372ZM12.1867 8.74967C12.1867 8.19341 12.3516 7.64964 12.6606 7.18712C12.9697 6.72461 13.4089 6.36413 13.9229 6.15125C14.4368 5.93838 15.0023 5.88269 15.5478 5.99121C16.0934 6.09973 16.5946 6.36759 16.9879 6.76093C17.3812 7.15426 17.6491 7.6554 17.7576 8.20097C17.8661 8.74655 17.8104 9.31205 17.5976 9.82596C17.3847 10.3399 17.0242 10.7791 16.5617 11.0882C16.0992 11.3972 15.5554 11.5622 14.9992 11.5622C14.2532 11.5622 13.5379 11.2658 13.0104 10.7384C12.483 10.211 12.1867 9.49559 12.1867 8.74967ZM8.74916 32.8122C8.1929 32.8122 7.64913 32.6472 7.18662 32.3382C6.7241 32.0291 6.36362 31.5899 6.15075 31.076C5.93787 30.562 5.88218 29.9965 5.9907 29.451C6.09922 28.9054 6.36709 28.4043 6.76042 28.0109C7.15376 27.6176 7.65489 27.3497 8.20047 27.2412C8.74604 27.1327 9.31154 27.1884 9.82545 27.4013C10.3394 27.6141 10.7786 27.9746 11.0877 28.4371C11.3967 28.8996 11.5617 29.4434 11.5617 29.9997C11.5617 30.7456 11.2653 31.461 10.7379 31.9884C10.2104 32.5158 9.49508 32.8122 8.74916 32.8122ZM19.9992 22.8122C19.4429 22.8122 18.8991 22.6472 18.4366 22.3382C17.9741 22.0291 17.6136 21.5899 17.4007 21.076C17.1879 20.562 17.1322 19.9965 17.2407 19.451C17.3492 18.9054 17.6171 18.4043 18.0104 18.0109C18.4038 17.6176 18.9049 17.3497 19.4505 17.2412C19.996 17.1327 20.5615 17.1884 21.0755 17.4013C21.5894 17.6141 22.0286 17.9746 22.3377 18.4371C22.6467 18.8996 22.8117 19.4434 22.8117 19.9997C22.8117 20.7456 22.5153 21.461 21.9879 21.9884C21.4604 22.5159 20.7451 22.8122 19.9992 22.8122ZM31.2492 31.5622C30.6929 31.5622 30.1491 31.3972 29.6866 31.0882C29.2241 30.7791 28.8636 30.3399 28.6507 29.826C28.4379 29.312 28.3822 28.7465 28.4907 28.201C28.5992 27.6554 28.8671 27.1543 29.2604 26.7609C29.6538 26.3676 30.1549 26.0997 30.7005 25.9912C31.246 25.8827 31.8115 25.9384 32.3255 26.1513C32.8394 26.3641 33.2786 26.7246 33.5877 27.1871C33.8967 27.6496 34.0617 28.1934 34.0617 28.7497C34.0617 29.4956 33.7653 30.211 33.2379 30.7384C32.7105 31.2658 31.9951 31.5622 31.2492 31.5622Z" fill="#714245"/>
</svg>
