<svg width="40" height="40" viewBox="0 0 40 40" fill="none" xmlns="http://www.w3.org/2000/svg">
<path d="M34.6878 17.9002C35.2937 16.5048 35.5111 14.9716 35.317 13.4627C35.1229 11.9539 34.5245 10.5256 33.5851 9.32909C32.6456 8.13253 31.4002 7.21221 29.9806 6.66554C28.5609 6.11886 27.0199 5.96616 25.5206 6.22361C24.6145 5.00339 23.3956 4.05059 21.9927 3.46585C20.5899 2.88112 19.0551 2.68617 17.5506 2.9016C16.0461 3.11704 14.6277 3.73485 13.4453 4.68977C12.2629 5.6447 11.3604 6.90127 10.8331 8.32673C9.3231 8.50142 7.88834 9.08078 6.68044 10.0036C5.47254 10.9264 4.53637 12.1584 3.97086 13.5694C3.40536 14.9803 3.23152 16.5178 3.46773 18.0195C3.70394 19.5211 4.34141 20.931 5.31278 22.1002C4.83011 23.2128 4.59297 24.4164 4.61753 25.629C4.64209 26.8415 4.92777 28.0345 5.45509 29.1267C5.98242 30.2189 6.739 31.1845 7.67328 31.9579C8.60756 32.7312 9.69757 33.294 10.869 33.608C11.5837 33.8024 12.3206 33.9027 13.0612 33.9064C13.5357 33.9064 14.0093 33.8657 14.4768 33.7845C15.383 35.0048 16.6018 35.9576 18.0047 36.5423C19.4076 37.127 20.9423 37.322 22.4469 37.1066C23.9514 36.8911 25.3697 36.2733 26.5522 35.3184C27.7346 34.3635 28.6371 33.1069 29.1643 31.6814C30.676 31.5081 32.1127 30.9293 33.3223 30.0062C34.5319 29.0831 35.4693 27.8501 36.0354 26.4378C36.6014 25.0254 36.775 23.4863 36.5378 21.9833C36.3006 20.4804 35.6613 19.0695 34.6878 17.9002ZM28.6518 8.20329C29.5069 8.43227 30.3067 8.83185 31.0033 9.37799C31.6999 9.92413 32.2788 10.6055 32.7051 11.3812C33.1315 12.1569 33.3966 13.0108 33.4843 13.8916C33.5721 14.7724 33.4808 15.6618 33.2159 16.5064C32.9611 16.3185 32.6961 16.1448 32.4222 15.9861L25.469 11.972C25.3265 11.8898 25.1649 11.8464 25.0003 11.8464C24.8357 11.8464 24.6741 11.8898 24.5315 11.972L17.1878 16.2111V12.6033L23.6722 8.85329C24.418 8.42116 25.2422 8.14122 26.0969 8.02965C26.9517 7.91808 27.8201 7.9771 28.6518 8.20329ZM22.8128 21.6236L20.0003 23.247L17.1878 21.6236V18.3767L20.0003 16.7533L22.8128 18.3767V21.6236ZM12.1878 11.2502C12.1876 9.92866 12.5864 8.63788 13.332 7.54679C14.0776 6.45569 15.1352 5.61512 16.3665 5.13508C17.5977 4.65504 18.9452 4.55792 20.2326 4.85641C21.5199 5.1549 22.6872 5.8351 23.5815 6.80798C23.2917 6.93527 23.009 7.07819 22.7347 7.23611L15.7815 11.2502C15.6392 11.3324 15.5209 11.4506 15.4386 11.5929C15.3564 11.7352 15.313 11.8967 15.3128 12.0611V20.5408L12.1878 18.7377V11.2502ZM6.11435 13.4267C6.56647 12.6383 7.17835 11.9531 7.91077 11.4149C8.64318 10.8768 9.47997 10.4976 10.3675 10.3017C10.3318 10.6166 10.3135 10.9333 10.3128 11.2502V19.2783C10.3127 19.443 10.3559 19.6048 10.4382 19.7474C10.5205 19.89 10.6389 20.0085 10.7815 20.0908L18.1253 24.3299L15.0003 26.1345L8.51591 22.3845C7.01051 21.5142 5.91206 20.0821 5.46178 18.4025C5.01149 16.723 5.2462 14.9334 6.11435 13.4267ZM11.3487 31.797C10.4937 31.5681 9.69385 31.1685 8.99727 30.6223C8.3007 30.0762 7.72181 29.3948 7.29543 28.6191C6.86905 27.8434 6.604 26.9895 6.51622 26.1087C6.42844 25.2279 6.51975 24.3385 6.78466 23.4939C7.03946 23.6818 7.30444 23.8555 7.57841 24.0142L14.5315 28.0283C14.6741 28.1106 14.8357 28.1539 15.0003 28.1539C15.1649 28.1539 15.3265 28.1106 15.469 28.0283L22.8128 23.7892V27.397L16.3284 31.147C15.5825 31.5792 14.7584 31.8591 13.9037 31.9707C13.0489 32.0823 12.1805 32.0232 11.3487 31.797ZM27.8128 28.7502C27.813 30.0717 27.4141 31.3625 26.6686 32.4536C25.923 33.5446 24.8653 34.3852 23.6341 34.8653C22.4029 35.3453 21.0554 35.4424 19.768 35.1439C18.4807 34.8454 17.3134 34.1652 16.419 33.1924C16.7089 33.0651 16.9916 32.9222 17.2659 32.7642L24.219 28.7502C24.3614 28.668 24.4797 28.5498 24.5619 28.4074C24.6442 28.2651 24.6876 28.1036 24.6878 27.9392V19.4595L27.8128 21.2627V28.7502ZM33.8862 26.5736C33.4341 27.362 32.8222 28.0473 32.0898 28.5854C31.3574 29.1236 30.5206 29.5027 29.6331 29.6986C29.6688 29.3837 29.6871 29.0671 29.6878 28.7502V20.722C29.6879 20.5574 29.6446 20.3956 29.5623 20.253C29.48 20.1103 29.3616 19.9919 29.219 19.9095L21.8753 15.6705L25.0003 13.8658L31.4847 17.6158C32.9901 18.4861 34.0885 19.9183 34.5388 21.5978C34.9891 23.2774 34.7544 25.067 33.8862 26.5736Z" fill="#714245"/>
</svg>
