<svg width="40" height="38" viewBox="0 0 40 38" fill="none" xmlns="http://www.w3.org/2000/svg">
<path d="M7.5 28H10V30.5H5V5.5H2.5V33H10V35.5H0V3H5V0.5H12.5C13.6458 0.5 14.7461 0.675781 15.8008 1.02734C16.8555 1.37891 17.8385 1.90625 18.75 2.60938C19.6484 1.90625 20.625 1.37891 21.6797 1.02734C22.7344 0.675781 23.8411 0.5 25 0.5H32.5V3H37.5V18.9961L35 17.8633V5.5H32.5V16.7305L30 15.5781V3H25C24.0755 3 23.1901 3.15625 22.3438 3.46875C21.4974 3.78125 20.7161 4.24349 20 4.85547V16.7305L17.5 17.8633V4.85547C16.7969 4.25651 16.0221 3.80078 15.1758 3.48828C14.3294 3.17578 13.4375 3.01302 12.5 3H7.5V28ZM35 32.9805L26.25 37.375L17.5 32.9805C17.5 32.5117 17.5065 32.0169 17.5195 31.4961C17.5326 30.9753 17.5846 30.4479 17.6758 29.9141C17.7669 29.3802 17.8971 28.8789 18.0664 28.4102C18.2357 27.9414 18.4701 27.5052 18.7695 27.1016L15 25.3828V36.75H12.5V24.25L26.25 18L40 24.25L33.7305 27.1016L33.8867 27.3164C34.1602 27.7201 34.3685 28.1562 34.5117 28.625C34.6549 29.0938 34.7656 29.569 34.8438 30.0508C34.9219 30.5326 34.9674 31.0273 34.9805 31.5352C34.9935 32.043 35 32.5247 35 32.9805ZM26.25 20.7344L18.5352 24.25L26.25 27.7656L33.9648 24.25L26.25 20.7344ZM26.25 34.582L32.5 31.4375C32.487 31.099 32.4609 30.793 32.4219 30.5195C32.3828 30.2461 32.3112 29.9792 32.207 29.7188C32.1029 29.4583 31.9987 29.2044 31.8945 28.957C31.7904 28.7096 31.6406 28.4362 31.4453 28.1367L26.25 30.5L21.0547 28.1367C20.8594 28.4492 20.7031 28.7292 20.5859 28.9766C20.4688 29.224 20.3646 29.4714 20.2734 29.7188C20.1823 29.9661 20.1237 30.2266 20.0977 30.5C20.0716 30.7734 20.0456 31.0924 20.0195 31.457L26.25 34.582Z" fill="#714245"/>
</svg>
